<svg xmlns="http://www.w3.org/2000/svg" viewBox="0 0 389.99 161.89"><title>LDC separate</title><path d="M274.7,48.68a75.72,75.72,0,0,1,17.7-25.55,82.2,82.2,0,0,1,27.29-17A95.79,95.79,0,0,1,354.49,0H390V32.15h-35.5a53.45,53.45,0,0,0-19.89,3.58,44.27,44.27,0,0,0-15.38,10.06,46.27,46.27,0,0,0-9.94,15.5A52.75,52.75,0,0,0,305.7,81v.46a51.61,51.61,0,0,0,3.58,19.66,46.74,46.74,0,0,0,9.94,15.26,42.93,42.93,0,0,0,15.38,10,55.09,55.09,0,0,0,19.89,3.46H390v32.15h-35.5a94.15,94.15,0,0,1-34.8-6.24,83.79,83.79,0,0,1-27.29-17.12,75.32,75.32,0,0,1-17.7-25.67A81.25,81.25,0,0,1,268.46,81v-.47A80.53,80.53,0,0,1,274.7,48.68Z" fill="#ffc852"/><path d="M0,0H35.62V129.74h80.71v32.15H0Z" fill="#f05f3b"/><path d="M247.22,48.68a75.83,75.83,0,0,0-17.69-25.55,82.35,82.35,0,0,0-27.3-17A95.79,95.79,0,0,0,167.43,0h-35.5V32.15h35.5a53.45,53.45,0,0,1,19.89,3.58A44.18,44.18,0,0,1,202.7,45.79a46.11,46.11,0,0,1,9.94,15.5,52.74,52.74,0,0,1,3.59,19.65v.47a51.61,51.61,0,0,1-3.59,19.66,46.69,46.69,0,0,1-9.94,15.26,42.69,42.69,0,0,1-15.38,9.94,54.88,54.88,0,0,1-19.89,3.47h-35.5v32.15h35.5a94.15,94.15,0,0,0,34.8-6.24,83.94,83.94,0,0,0,27.3-17.12,75.43,75.43,0,0,0,17.69-25.67,81.3,81.3,0,0,0,6.24-31.92v-.46A80.5,80.5,0,0,0,247.22,48.68Z" fill="#419f9e"/></svg>